<?xml version="1.0" encoding="utf-8"?>
<!-- Generator: Adobe Illustrator 23.1.0, SVG Export Plug-In . SVG Version: 6.00 Build 0)  -->
<svg version="1.1" id="Слой_1" xmlns="http://www.w3.org/2000/svg" xmlns:xlink="http://www.w3.org/1999/xlink" x="0px" y="0px" viewBox="0 0 200 200" style="enable-background:new 0 0 200 200;" xml:space="preserve">
<style type="text/css">
.st0{fill:#777777;}
.st1{fill:#FFFFFF;}
.st2{font-family:'Arial-BoldMT';}
.st3{font-size:28px;}
.st4{fill:#777777;}
.st5{font-size:40px;}
.st6{fill:#C70030;}
</style>
<rect x="34.2" y="50.2" class="st0" width="10" height="100"/>
<rect x="92" y="50.2" class="st0" width="10" height="100"/>
<rect x="149.9" y="50.2" class="st0" width="10" height="50"/>
<rect x="39" y="95" class="st0" width="130" height="10"/>
<circle class="st0" cx="97" cy="100.2" r="22.4"/>
<text transform="matrix(1 0 0 1 86.6322 110.4639)" class="st1 st2 st3">N</text>
<text transform="matrix(1 0 0 1 26.2148 35.0953)" class="st4 st2 st5">1</text>
<text transform="matrix(1 0 0 1 29.1272 192.1773)" class="st4 st2 st5">2</text>
<text transform="matrix(1 0 0 1 85.4339 35.095)" class="st4 st2 st5">3</text>
<text transform="matrix(1 0 0 1 86.632 192.1778)" class="st4 st2 st5">4</text>
<text transform="matrix(1 0 0 1 144.0493 35.095)" class="st4 st2 st5">5</text>
<rect x="159" y="98.2" class="st0" width="10" height="52"/>
<text transform="matrix(1 0 0 1 150.1736 192.1774)" class="st6 st2 st5">R</text>
</svg>
