<svg width="175pt" height="55pt" viewBox="0 0 175 55" xmlns="http://www.w3.org/2000/svg"><g fill="#E10000"><path d="M0 8h39v39H0V8m7.87 11.99V36H13c0-3.65-.01-7.31.03-10.96 4.26 3.63 8.45 7.35 12.71 10.98l5.53-.03V20h-5.14c0 3.69 0 7.38-.01 11.07-4.17-3.7-8.42-7.33-12.59-11.04-1.89-.02-3.77-.03-5.66-.04ZM43.53 20h4.34c0 5.33-.01 10.66 0 16h-4.34V20ZM54.38 21.11c4.24-1.98 9.1-1.05 13.48-.05.02.88.07 2.64.09 3.52-3.78-1.41-8.18-2.53-12-.62 3.6 2.77 8.87 1.54 12.26 4.73 1.94 1.81.9 5.38-1.51 6.24-4.62 1.96-9.82 1.07-14.52-.13.04-1.19.09-2.37.13-3.56 4.05 1.78 8.85 2.67 12.99.68-3.13-3.24-8.41-1.79-11.86-4.6-2.15-1.58-1.44-5.21.94-6.21ZM73.53 19.99c1.87 0 3.74-.06 5.61.08 2.77 3.68 4.41 8.09 6.78 12.03 2.19-4.01 4.36-8.03 6.46-12.1h5.89v16H94c0-3.74.01-7.48-.04-11.21-2.02 3.72-3.9 7.52-5.96 11.23-1.38-.01-2.76-.02-4.13-.02-1.98-3.74-3.95-7.48-6-11.18-.01 3.72-.01 7.45 0 11.18h-4.34V19.99ZM110.08 20.14c3.65-.48 7.59-.11 10.78 1.85 4.23 2.77 3.94 10.09-.62 12.4-4.53 2.21-10.16 2.28-14.68 0-3.84-2-4.8-7.57-2.18-10.9 1.57-2.11 4.23-2.91 6.7-3.35m-.58 3.34c-3.84 1.05-4.31 7.11-.68 8.71 3.67 1.88 10.7 1.06 10.69-4.17.11-5.01-6.36-5.93-10.01-4.54ZM125.87 20h18v4H137v12h-4.4c0-4 0-7.99.01-11.99-2.25-.01-4.5-.01-6.74-.02V20ZM153.1 20.23c3.89-.58 8.28-.37 11.57 2.04 3.58 2.67 3.6 8.72.05 11.42-3.46 2.54-8.13 2.73-12.2 1.96-3.72-.59-7.37-3.54-7.09-7.61-.35-4.36 3.74-7.32 7.67-7.81m1.38 2.85c-2.85.32-5.34 2.91-4.56 5.9.79 4.18 6.35 4.72 9.68 3.6 3.29-.72 4.4-5.06 2.47-7.58-1.9-2.08-4.97-2.3-7.59-1.92Z"/></g><path fill="#fff" d="M7.87 19.99c1.89.01 3.77.02 5.66.04 4.17 3.71 8.42 7.34 12.59 11.04.01-3.69.01-7.38.01-11.07h5.14v15.99l-5.53.03c-4.26-3.63-8.45-7.35-12.71-10.98C12.99 28.69 13 32.35 13 36H7.87V19.99Z"/></svg>
