<svg xmlns="http://www.w3.org/2000/svg" width="175pt" height="55pt" viewBox="0 0 175 55"><g fill="#ff0523"><path d="M0 10h35v35H0V10m8.26 8.01c.01 6.33.01 12.65 0 18.98 1.45.01 2.89.01 4.34.01 0-3.81 0-7.62.01-11.43 3.1 3.82 6.29 7.57 9.34 11.44C23.16 37 24.38 37 25.6 37V18c-1.44 0-2.89 0-4.34.01.01 3.86 0 7.72.02 11.58-3.15-3.85-6.31-7.71-9.43-11.59-1.2 0-2.39.01-3.59.01ZM40 19c1.29 0 2.58 0 3.87.01-.01 5.66-.01 11.32 0 16.98-1.29 0-2.58.01-3.87.01V19ZM50.47 20.35c3.27-2.25 7.52-1.44 10.97-.08-.39.98-.78 1.95-1.17 2.93-2.6-1.19-7.64-2.56-8.13 1.59 2.71 1.12 5.76 1.34 8.32 2.8 2.44 1.41 2.18 5.32-.03 6.84-3.59 2.69-8.39 1.5-12.26.09.27-.79.82-2.37 1.09-3.15 2.96 1.3 7.36 3.12 9.54-.4-2.36-2.1-5.73-1.85-8.38-3.34-2.76-1.45-2.43-5.72.05-7.28ZM66.53 19.01c.8-.01 2.39-.01 3.18-.01 2.08 3.52 4.15 7.05 6.31 10.52 2.09-3.48 4.11-7.01 6.16-10.52.81 0 2.42 0 3.22.01V36h-3.67c0-3.39.01-6.77-.02-10.16-1.63 2.7-3.05 5.53-4.84 8.12h-1.88c-1.72-2.52-3.13-5.24-4.86-7.75-.01 3.26.01 6.53 0 9.79h-3.6V19.01ZM97.19 19.24c4.49-1.2 10.05 1.18 11.28 5.89 1.43 4.42-1.5 9.48-6 10.51-5.14 1.74-11.94-1.78-11.99-7.59-.51-4.17 2.75-7.96 6.71-8.81m.19 3.27c-3.75 1.65-4.1 7.6-.54 9.65 3.08 2.37 7.97-.36 8.03-4.12.67-3.91-3.96-7.51-7.49-5.53ZM111.6 19h14.67v2.99c-1.81.01-3.6.01-5.4.02 0 4.66-.01 9.32 0 13.98-1.29 0-2.58.01-3.87.01V22c-1.8 0-3.6 0-5.4-.01V19ZM134.37 19.63c5.71-2.56 13.61 1.78 12.96 8.43-.3 7.28-10.22 10.45-15.35 5.87-5.03-3.65-3.49-12.4 2.39-14.3m2.95 2.41c-4.1.53-5.84 5.93-3.3 9 2.1 2.79 6.86 2.54 8.56-.56 2.56-3.61-.83-9.3-5.26-8.44Z"/></g><path fill="#fff" d="M8.26 18.01c1.2 0 2.39-.01 3.59-.01 3.12 3.88 6.28 7.74 9.43 11.59-.02-3.86-.01-7.72-.02-11.58 1.45-.01 2.9-.01 4.34-.01v19c-1.22 0-2.44 0-3.65.01-3.05-3.87-6.24-7.62-9.34-11.44-.01 3.81-.01 7.62-.01 11.43-1.45 0-2.89 0-4.34-.01.01-6.33.01-12.65 0-18.98Z"/></svg>
