<svg width="175pt" height="55pt" viewBox="0 0 175 55" xmlns="http://www.w3.org/2000/svg"><g fill="#ff0523"><path d="M0 10h35v35H0V10m9.13 9v18h4.27c0-3.61 0-7.21-.01-10.81 2.98 3.61 5.99 7.19 8.97 10.81h3.51V19H21.6c0 3.64 0 7.27.01 10.91-2.95-3.67-5.98-7.27-8.97-10.91H9.13ZM40 20h3.87c-.01 5.67 0 11.33 0 17H40V20ZM50.45 21.37c3.26-2.28 7.51-1.43 10.98-.13-.38.99-.76 1.97-1.14 2.96-2.68-1.19-7.6-2.54-8.19 1.6 2.53.85 5.14 1.45 7.65 2.35 3.01 1.13 3.2 5.59.65 7.31-3.61 2.66-8.4 1.46-12.26.04.3-.79.9-2.36 1.2-3.14 2.89 1.38 7.34 3.1 9.47-.41-2.38-2.06-5.74-1.85-8.39-3.32-2.75-1.44-2.44-5.7.03-7.26ZM66.53 20h3.18c1.99 3.23 3.74 6.59 5.85 9.74.21.02.63.07.84.09 2.07-3.19 3.8-6.59 5.79-9.83.8 0 2.41 0 3.21.01V37h-3.67c.01-3.39.01-6.77-.01-10.16-1.64 2.69-3.05 5.52-4.84 8.12H75c-1.76-2.54-3.19-5.29-4.88-7.87.01 3.3.02 6.6.01 9.91h-3.6V20ZM97.22 20.23c4.47-1.19 10 1.2 11.24 5.87 1.33 4.15-1.11 8.98-5.26 10.3-5.27 2.27-12.73-1.29-12.73-7.44-.47-4.15 2.8-7.89 6.75-8.73m.23 3.24c-3.8 1.62-4.2 7.62-.62 9.69 3.11 2.39 8.03-.4 8.04-4.18.62-3.87-3.92-7.4-7.42-5.51ZM111.6 20h14.67v2.99c-1.8.01-3.6.01-5.4.02-.01 4.66 0 9.32 0 13.99H117V23c-1.8 0-3.6 0-5.4-.01V20ZM134.35 20.63c5.7-2.55 13.58 1.74 12.98 8.38-.25 7.31-10.21 10.52-15.36 5.91-5.01-3.65-3.48-12.37 2.38-14.29m2.99 2.4c-4.1.53-5.87 5.92-3.33 9 2.09 2.78 6.81 2.56 8.54-.5 2.61-3.6-.76-9.34-5.21-8.5Z"/></g><path fill="#fff" d="M9.13 19h3.51c2.99 3.64 6.02 7.24 8.97 10.91-.01-3.64-.01-7.27-.01-10.91h4.27v18h-3.51c-2.98-3.62-5.99-7.2-8.97-10.81.01 3.6.01 7.2.01 10.81H9.13V19Z"/></svg>
