<svg xmlns="http://www.w3.org/2000/svg" xml:space="preserve" id="NISMOTO" x="0" y="0" version="1.1" viewBox="0 0 175 55"><style>.st2{fill:#cf0000}</style><path d="M5 10h35v35H5zm7.5 10v15H16V24.6c4.4 3.4 8.7 6.9 13 10.4h3.3V20h-3.7v10.3C24.2 27 20 23.5 15.8 20.1c-.8-.1-2.4-.1-3.3-.1" style="fill:#c3002f"/><path d="M12.5 20c.8 0 2.5.1 3.3.1 4.2 3.4 8.4 6.9 12.7 10.3V20.1h3.7v15h-3.3c-4.3-3.5-8.7-6.9-13-10.4v10.4h-3.5c.1-5.1.1-10.1.1-15.1" style="fill:#fff"/><path d="M44.5 20H48v15h-3.5zM51.5 21.5c1.3-1.7 3.6-1.5 5.5-1.5 4.2 0 8.3.1 12.5 0v3c-5 0-10 .1-15-.1-.2.9-.2 1.8-.3 2.8 4.4.9 9-.3 13.4.7 3.7 1.5 3.3 7.7-.8 8.5-5.2.4-10.5-.1-15.8.1v-3.3c4.3 0 8.7.1 13 0 1.9.5 2.9-.9 2.4-2.7-4.3-.2-8.5.3-12.8-.3-3.1-.5-4.2-4.9-2.1-7.2M73.5 20h3.6c2.5 3.8 5 7.5 7.6 11.2 2.5-3.7 5-7.4 7.5-11.2H96v15h-3.7v-8.9c-2 3-4 5.9-5.9 8.9h-3.3l-6-9v9h-3.5c-.1-5-.1-10-.1-15M104.2 20.2c4.7-.1 10.6-1.6 14.2 2.3 3.8 4 1.3 11.8-4.4 12.3-4.4.2-9.5 1.1-13.2-1.7-4.4-3.6-2.5-12.2 3.4-12.9m.1 3.3c-3.1 1.4-3 6.8.2 8 3 .5 6.2.4 9.2.1 3.7-1 3.7-7.1.2-8.2-3.1-.6-6.5-.8-9.6.1M122.5 20h18.7v3h-7.5v12h-4V23h-7.2zM149.2 20.2c4.7-.1 10.6-1.6 14.2 2.3 3.8 4 1.3 11.7-4.4 12.3-4.4.2-9.5 1.1-13.2-1.7-4.4-3.6-2.5-12.2 3.4-12.9m.1 3.3c-3.1 1.4-3 6.7.2 7.9 3 .5 6.2.4 9.2.1 3.7-.9 3.8-7.1.2-8.2-3.1-.5-6.5-.7-9.6.2" class="st2"/></svg>
