<svg xmlns="http://www.w3.org/2000/svg" xml:space="preserve" id="nismoto" x="0" y="0" style="enable-background:new 0 0 175 55" version="1.1" viewBox="0 0 175 55"><style>.st0{fill:#c70030}</style><path d="M5 10h35v35H5V10m8.9 11v13h3.6v-8.9c3 2.9 6 5.8 8.9 8.8 1.4 0 2.7.1 4.1.1V21h-3.6v9c-2.9-3.1-6.1-6-9.1-9h-3.9zM44.3 21.3h3.5v13.5h-3.5V21.3zM54 22c3.6-1.7 7.6-.9 11.3-.1v3c-3.1-1-6.4-1.6-9.6-.7 2.8 3.6 11.8 1.3 10.7 7.8-2.9 4.6-9.7 3-14.1 1.9v-3.2c3.5 1.3 7.7 2.6 11.1.3-3-2-6.9-1.6-9.9-3.5-2-1.4-1.5-4.4.5-5.5zM70.8 21.3h5c1.8 3.3 3.3 6.9 5.5 10 1.7-3.3 3.5-6.6 5.3-10 1.7 0 3.3-.1 5-.1v13.5c-1.2 0-2.3 0-3.5.1 0-3.1 0-6.1-.1-9.2-1.8 3-3.4 6.1-5.1 9.2h-3.5c-1.7-3.1-3.3-6.3-5.1-9.4v9.4c-1.2 0-2.4-.1-3.6-.2.2-4.5 0-8.9.1-13.3zM100.4 21.7c5-1.8 13.6-.5 13.6 6.3.2 7.5-9.8 8.8-14.9 6-5.1-2.5-4.2-11 1.3-12.3m1 3c-2.9 1.4-2.6 6.4.6 7.1 3.1 1.2 8.5.4 8.3-3.9-.2-4.2-5.8-4.7-8.9-3.2zM116.2 21.3h15.3v3h-5.8v10.5H122V24.3c-1.9 0-3.8.1-5.7.1 0-1.1 0-2.1-.1-3.1zM138.5 21.6c3.3-1 7.1-1 10.3.6 4.6 2.3 4.4 10-.4 12-4 1.6-9 1.6-12.5-1.1-3.8-3.2-2.3-10.3 2.6-11.5m.9 3.1c-2.9 1.4-2.5 6.4.7 7.1 3 1.1 8.3.3 8.2-3.8-.1-4.3-5.8-4.8-8.9-3.3z" class="st0"/><path d="M13.9 21h3.9c3 3.1 6.2 5.9 9.1 9v-9h3.6v13c-1.4 0-2.7 0-4.1-.1-2.9-3-5.9-5.9-8.9-8.8V34h-3.6V21z" style="fill:#fff"/></svg>
