<svg xmlns="http://www.w3.org/2000/svg" xml:space="preserve" id="NISMOTO" x="0" y="0" version="1.1" viewBox="0 0 175 55"><style>.st2{fill:#cf0000}</style><path d="M5 10h35v35H5zm7.5 10v15H16V24.6c4.4 3.4 8.7 6.9 13 10.4h3.3V20h-3.7v10.3C24.3 27 20.1 23.5 15.9 20z" style="fill:#c3002f"/><path d="M12.5 20c.8 0 2.5.1 3.3.1 4.2 3.5 8.4 6.9 12.7 10.3V20.1h3.7v15h-3.3c-4.3-3.5-8.6-7-13-10.4v10.4h-3.5c.1-5.1.1-10.1.1-15.1" style="fill:#fff"/><path d="M45.8 21h3.3v12.5h-3.3zM55.1 21.2c4.5-.4 9 0 13.5-.2 0 .7-.1 2-.2 2.6-4.2.3-8.5 0-12.7.3.2.4.6 1.3.8 1.7 3.1.3 6.3-.1 9.5.3 3 .2 4.1 4.3 2.2 6.4-.9 1.4-2.8 1.2-4.2 1.3H53.3c0-.9 0-1.9.1-2.8 4-.2 8.2.5 12.1-.3.1-.3.4-.9.5-1.3-3.4-1.4-7.3-.2-10.8-.8-3.4-.9-3.4-6.3-.1-7.2M72.8 21H76l6 9 6-9h3.2v12.5h-3.3v-6.7c-1.5 2.2-2.9 4.4-4.3 6.6-1.1 0-2.2 0-3.3.1-1.3-2.3-2.8-4.5-4.3-6.7v6.7h-3.2zM99.2 21.2c3.4-.4 7-.6 10.3.2 5 1.9 4.7 10.2-.5 11.7-3.2.6-6.6.6-9.8 0-5.7-1.2-5.7-10.6 0-11.9m.1 3.3c-1.9 1.6-1.5 5.4 1.1 5.9 2.3.5 4.8.5 7.1 0 3.1-1 2.7-6.3-.7-6.6-2.3 0-5.2-.6-7.5.7M116 21c5.2 0 10.4-.1 15.6.1 0 .7-.1 2-.2 2.6h-6v9.8h-3.5v-9.8h-6c.1-.6.1-2 .1-2.7M138.3 21.3c3.2-.5 6.5-.4 9.7-.1 5.3 1.1 5.9 9.6 1 11.6-3.4 1.1-7.2.9-10.8.3-5.4-1.5-5.4-10.4.1-11.8m.9 2.8c-2.4 1-2.5 5.5.2 6.2 2.3.6 4.8.6 7.1.1 3-.7 3.3-5.4.4-6.5-2.5-.3-5.2-.5-7.7.2" class="st2"/></svg>
