<svg xmlns="http://www.w3.org/2000/svg" xml:space="preserve" id="nismoto.blogspot.com" x="0" y="0" version="1.1" viewBox="0 0 350 110"><style>.st2{fill:#3a3a3a}</style><path d="M0 15h80v80H0z" style="fill:#cf0000"/><path d="M20.7 70V40H27l25.2 20.7V40h7.1v29.9H53L27.8 49.5v20.4z" style="fill:#fff"/><path d="M92 66.6V43.3h5.7v23.3zM104.7 66.6v-4.9h22c1.2 0 1.9-.8 1.9-2.2s-.8-2.2-1.9-2.2h-15.4c-2.3 0-4.2-.7-5.5-2-1.6-1.5-2-3.3-2-5s.4-3.6 2-5c1.4-1.3 3.3-2.1 5.5-2.1h22.1v4.9h-22c-1.1 0-1.9.8-1.9 2.1 0 1.4.8 2.2 1.9 2.2h15.4c2.3 0 4.2.7 5.6 2 1.6 1.5 2 3.3 2 5 0 1.6-.4 3.5-2 5-1.4 1.3-3.3 2.1-5.6 2.1h-22.1zM140.4 66.6V43.3h5.7l11.7 17.4 11.6-17.4h5.7v23.3h-5.7V52.9l-9.2 13.7H155L146.1 53v13.6zM181 54.9c0-2 .4-4 1.5-5.9 1.9-3.3 5.6-5.6 10.8-5.6h9.1c5.3 0 8.9 2.3 10.9 5.7 1.1 1.9 1.5 4.1 1.5 6 0 2-.4 4.1-1.5 6-1.9 3.3-5.6 5.6-10.8 5.6h-9.1c-5.2 0-8.9-2.3-10.8-5.6-1.2-2.1-1.6-4.2-1.6-6.2m12.4 6.9h9c2 0 3.5-.6 4.8-1.8 1.4-1.4 1.9-3.2 1.9-5s-.5-3.7-1.9-5c-1.2-1.2-2.8-1.7-4.8-1.7h-9c-2 0-3.5.6-4.8 1.7-1.4 1.3-1.9 3.1-1.9 5v.1c0 1.8.5 3.6 1.9 4.9 1.3 1.2 2.8 1.8 4.8 1.8M231.1 66.7V48.2h-11.5v-4.9h29v4.9H237v18.4h-5.9zM253.5 54.9c0-2 .4-4 1.5-5.9 1.9-3.3 5.6-5.6 10.8-5.6h9.1c5.3 0 8.9 2.3 10.9 5.7 1.1 1.9 1.5 4.1 1.5 6 0 2-.4 4.1-1.5 6-1.9 3.3-5.6 5.6-10.8 5.6h-9.1c-5.2 0-8.9-2.3-10.8-5.6-1.2-2.1-1.6-4.2-1.6-6.2m12.4 6.9h9c2 0 3.5-.6 4.8-1.8 1.4-1.4 1.9-3.2 1.9-5s-.5-3.7-1.9-5c-1.2-1.2-2.8-1.7-4.8-1.7h-9c-2 0-3.5.6-4.8 1.7-1.4 1.3-1.9 3.1-1.9 5v.1c0 1.8.5 3.6 1.9 4.9 1.3 1.2 2.8 1.8 4.8 1.8" class="st2"/></svg>
