<svg xmlns="http://www.w3.org/2000/svg" xml:space="preserve" id="nismoto" x="0" y="0" version="1.1" viewBox="0 0 350 110"><style>.st0{fill:#cf0000}</style><path d="M19 20h70v70H19zM97.4 66.3V45.9h5v20.4zM107.9 66.3V62h19.5c1 0 1.7-.7 1.7-1.9s-.7-1.9-1.7-1.9h-13.6c-2 0-3.7-.6-4.9-1.8-1.4-1.3-1.8-2.9-1.8-4.4s.4-3.1 1.8-4.4c1.2-1.2 2.9-1.8 4.9-1.8h19.5v4.3h-19.5c-1 0-1.7.7-1.7 1.9s.7 1.9 1.7 1.9h13.6c2 0 3.7.6 4.9 1.8 1.4 1.3 1.8 2.9 1.8 4.4s-.4 3.1-1.7 4.4c-1.2 1.2-2.9 1.8-4.9 1.8zM139.6 66.3V62h19.5c1 0 1.7-.7 1.7-1.9s-.7-1.9-1.7-1.9h-13.6c-2 0-3.7-.6-4.9-1.8-1.4-1.3-1.8-2.9-1.8-4.4s.4-3.1 1.8-4.4c1.2-1.2 2.9-1.8 4.9-1.8H165v4.3h-19.5c-1 0-1.7.7-1.7 1.9s.7 1.9 1.7 1.9h13.6c2 0 3.7.6 4.9 1.8 1.4 1.3 1.8 2.9 1.8 4.4s-.4 3.1-1.7 4.4c-1.2 1.2-2.9 1.8-4.9 1.8zM170.4 66.3l13.2-20.4h6.2L203 66.3h-5.7l-2.5-3.8h-16.2l-2.5 3.8zm10.9-8.1H192l-5.2-8.1h-.3zM206.8 66.3V45.9h4.4l17.6 14.2V45.9h5v20.4h-4.4l-17.7-14v14z" class="st0"/><path d="M35.7 69.7V40.9h6.1l24.5 20v-20h7v28.8h-6.1L42.7 50v19.7z" style="fill:#fff"/></svg>
