<svg xmlns="http://www.w3.org/2000/svg" xml:space="preserve" id="nismoto.blogspot.com" x="0" y="0" version="1.1" viewBox="0 0 350 110"><style>.st3{fill:#3a3a3a}</style><path d="M8.5 17.5h75v75h-75z" style="fill:#cf0000"/><path d="M27.9 69.1V40.9h5.9l23.7 19.5V40.9h6.7V69h-5.9L34.6 49.8V69z" style="fill:#fff"/><path d="M93.7 65.3V44.7h5v20.6zM104.1 65.3V61h19.4c1 0 1.7-.7 1.7-1.9s-.7-1.9-1.7-1.9h-13.6c-2 0-3.7-.6-4.9-1.8-1.4-1.3-1.8-2.9-1.8-4.4s.4-3.1 1.8-4.4c1.2-1.2 2.9-1.8 4.9-1.8h19.5V49H110c-1 0-1.7.7-1.7 1.9s.7 1.9 1.7 1.9h13.6c2 0 3.7.6 4.9 1.8 1.4 1.3 1.8 2.9 1.8 4.4s-.4 3.1-1.7 4.4c-1.2 1.2-2.9 1.8-4.9 1.8h-19.6zM134.8 65.3V44.7h5.1l10.3 15.4 10.3-15.4h5.1v20.6h-5V53.2l-8.1 12.1h-4.6l-8-12v12zM170.1 54.9c0-1.7.3-3.6 1.3-5.2 1.7-2.9 4.9-5 9.6-5h8c4.6 0 7.9 2.1 9.6 5 1 1.7 1.3 3.6 1.3 5.3s-.3 3.6-1.3 5.3c-1.7 2.9-5 5-9.6 5h-8c-4.6 0-7.9-2.1-9.6-5-1-1.7-1.3-3.6-1.3-5.4M181 61h7.9c1.8 0 3.1-.5 4.2-1.6 1.2-1.2 1.7-2.8 1.7-4.5 0-1.6-.5-3.2-1.7-4.4-1.1-1-2.4-1.5-4.2-1.5H181c-1.8 0-3.1.5-4.2 1.5-1.2 1.2-1.7 2.8-1.7 4.4v.1c0 1.6.5 3.2 1.7 4.4 1.1 1.1 2.4 1.6 4.2 1.6M214.6 65.3V49h-10.2v-4.3H230V49h-10.2v16.3zM234.6 54.9c0-1.7.3-3.6 1.3-5.2 1.7-2.9 4.9-5 9.6-5h8c4.6 0 7.9 2.1 9.6 5 1 1.7 1.3 3.6 1.3 5.3s-.3 3.6-1.3 5.3c-1.7 2.9-5 5-9.6 5h-8c-4.6 0-7.9-2.1-9.6-5-1-1.7-1.3-3.6-1.3-5.4m10.9 6.1h7.9c1.8 0 3.1-.5 4.2-1.6 1.2-1.2 1.7-2.8 1.7-4.5 0-1.6-.5-3.2-1.7-4.4-1.1-1-2.4-1.5-4.2-1.5h-7.9c-1.8 0-3.1.5-4.2 1.5-1.2 1.2-1.7 2.8-1.7 4.4v.1c0 1.6.5 3.2 1.7 4.4 1.1 1.1 2.5 1.6 4.2 1.6" class="st3"/></svg>
