<svg xmlns="http://www.w3.org/2000/svg" xml:space="preserve" id="nismoto.blogspot.com" x="0" y="0" version="1.1" viewBox="0 0 350 110"><style>.st2{fill:#3a3a3a}</style><path d="M8.9 17.5h74.9v74.9H8.9z" style="fill:#cf0000"/><path d="M26.7 70.8V39.9h6.5l26.3 21.4V39.9H67v30.8h-6.5L34.2 49.6v21.1h-7.5z" style="fill:#fff"/><path d="M97.9 68.5V43.2h6.2v25.3zM112.6 68.5v-5.3h23.9c1.3 0 2.1-.8 2.1-2.3s-.8-2.4-2.1-2.4h-16.7c-2.5 0-4.5-.8-6-2.2-1.7-1.6-2.2-3.6-2.2-5.4s.5-3.9 2.2-5.5c1.5-1.5 3.5-2.2 6-2.2h24v5.3h-23.9c-1.2 0-2.1.9-2.1 2.3 0 1.5.8 2.4 2.1 2.4h16.7c2.5 0 4.5.8 6 2.2 1.7 1.6 2.2 3.6 2.2 5.4s-.5 3.8-2.1 5.5c-1.5 1.5-3.6 2.2-6.1 2.2zM152.3 68.5V43.2h6.2l12.7 18.9 12.7-18.9h6.2v25.3h-6.2V53.7L174 68.5h-5.6l-9.9-14.8v14.8zM197.6 55.8c0-2.1.4-4.4 1.6-6.4 2.1-3.6 6.1-6.1 11.8-6.1h9.8c5.7 0 9.7 2.5 11.8 6.2 1.2 2.1 1.6 4.4 1.6 6.6 0 2.1-.4 4.4-1.6 6.5-2.1 3.6-6.1 6.1-11.8 6.1H211c-5.7 0-9.7-2.5-11.8-6.1-1.2-2.3-1.6-4.6-1.6-6.8m13.4 7.4h9.8c2.2 0 3.8-.6 5.2-1.9 1.5-1.5 2.1-3.4 2.1-5.5 0-2-.6-4-2.1-5.4-1.4-1.3-3-1.9-5.2-1.9H211c-2.2 0-3.8.6-5.2 1.9-1.5 1.4-2.1 3.4-2.1 5.4v.2c0 2 .6 3.9 2.1 5.4 1.4 1.2 3.1 1.8 5.2 1.8M254.3 68.5v-20h-12.5v-5.3h31.5v5.3h-12.6v20zM280.8 55.8c0-2.1.4-4.4 1.6-6.4 2.1-3.6 6.1-6.1 11.8-6.1h9.8c5.7 0 9.7 2.5 11.8 6.2 1.2 2.1 1.6 4.4 1.6 6.6 0 2.1-.4 4.4-1.6 6.5-2.1 3.6-6.1 6.1-11.8 6.1h-9.8c-5.7 0-9.7-2.5-11.8-6.1-1.2-2.3-1.6-4.6-1.6-6.8m13.4 7.4h9.8c2.2 0 3.8-.6 5.2-1.9 1.5-1.5 2.1-3.4 2.1-5.5 0-2-.6-4-2.1-5.4-1.4-1.3-3-1.9-5.2-1.9h-9.8c-2.2 0-3.8.6-5.2 1.9-1.5 1.4-2.1 3.4-2.1 5.4v.2c0 2 .6 3.9 2.1 5.4 1.4 1.2 3.1 1.8 5.2 1.8" class="st2"/></svg>
