<svg xmlns="http://www.w3.org/2000/svg" xml:space="preserve" id="nismoto.blogspot.com" x="0" y="0" version="1.1" viewBox="0 0 350 110"><style>.st2{fill:#3a3a3a}</style><path d="M19 20h70v70H19z" style="fill:#cf0000"/><path d="M35.7 69.7V40.9h6.1l24.5 20v-20h7v28.8h-6.1L42.7 50v19.7z" style="fill:#fff"/><path d="M102.2 67.6V44h5.7v23.7h-5.7zM115.9 67.6v-5h22.4c1.2 0 2-.8 2-2.2s-.8-2.2-2-2.2h-15.6c-2.3 0-4.2-.7-5.6-2.1-1.6-1.5-2-3.4-2-5.1s.5-3.6 2-5.1c1.4-1.4 3.3-2.1 5.6-2.1H145v5h-22.4c-1.2 0-2 .8-2 2.2s.8 2.2 2 2.2h15.6c2.3 0 4.2.7 5.6 2.1 1.6 1.5 2 3.4 2 5.1s-.5 3.6-2 5.1q-2.1 2.1-5.7 2.1zM153 67.6V44h5.8l11.8 17.7L182.5 44h5.8v23.7h-5.8V53.8l-9.3 13.9H168l-9.3-13.9v13.8zM195.3 55.7c0-2 .4-4.1 1.5-6 2-3.4 5.7-5.7 11-5.7h9.2c5.3 0 9.1 2.4 11 5.8 1.1 2 1.5 4.1 1.5 6.1s-.4 4.1-1.5 6.1c-1.9 3.4-5.7 5.7-11 5.7h-9.2c-5.3 0-9-2.4-11-5.7-1.1-2.1-1.5-4.2-1.5-6.3m12.6 7h9.1c2 0 3.6-.6 4.9-1.8 1.4-1.4 2-3.2 2-5.1s-.5-3.7-2-5.1c-1.3-1.2-2.8-1.8-4.8-1.8H208q-3 0-4.8 1.8c-1.4 1.3-2 3.2-2 5v.2c0 1.9.5 3.7 2 5 1.1 1.2 2.7 1.8 4.7 1.8M248.3 67.6V48.9h-11.7v-5h29.5v5h-11.8v18.7zM273.1 55.7c0-2 .4-4.1 1.5-6 2-3.4 5.7-5.7 11-5.7h9.2c5.3 0 9.1 2.4 11 5.8 1.1 2 1.5 4.1 1.5 6.1s-.4 4.1-1.5 6.1c-1.9 3.4-5.7 5.7-11 5.7h-9.2c-5.3 0-9-2.4-11-5.7-1.2-2.1-1.5-4.2-1.5-6.3m12.5 7h9.1c2 0 3.6-.6 4.9-1.8 1.4-1.4 2-3.2 2-5.1s-.5-3.7-2-5.1c-1.3-1.2-2.8-1.8-4.8-1.8h-9.1q-3 0-4.8 1.8c-1.4 1.3-2 3.2-2 5v.2c0 1.9.5 3.7 2 5 1.2 1.2 2.7 1.8 4.7 1.8" class="st2"/></svg>
