<svg xmlns="http://www.w3.org/2000/svg" width="175pt" height="55pt" viewBox="0 0 175 55"><g fill="#ff0523"><path d="M0 10h35v35H0V10m7.53 7.73c-.01 6.25.02 12.5-.02 18.75h3.97c-.02-4.55 0-9.1-.03-13.65 3.94 4.54 7.87 9.08 11.79 13.64l3.5.04c-.02-6.26 0-12.52-.01-18.78-1.33 0-2.66 0-3.99.01-.01 4.13-.02 8.27.02 12.41-3.61-4.14-7.17-8.32-10.82-12.42H7.53ZM40 19h3.87v17H40V19ZM50.43 20.38c3.26-2.29 7.52-1.43 11-.15-.38.98-.76 1.97-1.13 2.96-2.65-1.15-7.61-2.55-8.19 1.61 2.73 1.1 5.81 1.32 8.37 2.82 2.42 1.4 2.15 5.3-.04 6.81-3.6 2.7-8.41 1.48-12.28.09.28-.79.85-2.37 1.13-3.15 2.98 1.37 7.32 3.05 9.58-.4-2.44-1.98-5.74-1.91-8.43-3.32-2.76-1.42-2.47-5.69-.01-7.27ZM66.53 19h3.17c2.09 3.54 4.2 7.06 6.31 10.59 2.06-3.53 4.11-7.06 6.17-10.59h3.22v17h-3.67c0-3.39.02-6.78-.02-10.16-1.62 2.7-3.04 5.53-4.84 8.13-.47-.01-1.4-.01-1.86-.01-1.78-2.54-3.22-5.29-4.89-7.89.01 3.31.02 6.62.01 9.93h-3.6V19ZM97.21 19.24c5.83-1.8 12.84 3.34 11.47 9.67-1.03 7.54-12 9.53-16.44 3.83-3.98-4.61-1.02-12.52 4.97-13.5m.23 3.24c-3.77 1.6-4.19 7.57-.65 9.65 3.09 2.43 8.05-.33 8.08-4.14.64-3.87-3.92-7.42-7.43-5.51ZM111.6 19h14.67v2.99c-1.8.01-3.6.01-5.4.01 0 4.67-.01 9.33 0 14H117V22h-5.4v-3ZM134.36 19.63c5.71-2.57 13.63 1.79 12.96 8.45-.3 7.23-10.13 10.41-15.28 5.9-5.09-3.61-3.59-12.44 2.32-14.35m2.96 2.41c-4.1.53-5.85 5.95-3.29 9.02 2.1 2.75 6.8 2.53 8.51-.53 2.63-3.59-.76-9.36-5.22-8.49Z"/></g><path fill="#fff" d="M7.53 17.73h4.41c3.65 4.1 7.21 8.28 10.82 12.42-.04-4.14-.03-8.28-.02-12.41 1.33-.01 2.66-.01 3.99-.01.01 6.26-.01 12.52.01 18.78l-3.5-.04c-3.92-4.56-7.85-9.1-11.79-13.64.03 4.55.01 9.1.03 13.65H7.51c.04-6.25.01-12.5.02-18.75Z"/></svg>
