<svg xmlns="http://www.w3.org/2000/svg" xml:space="preserve" id="nismoto.blogspot.com" x="0" y="0" version="1.1" viewBox="0 0 350 110"><style>.st2{fill:#3a3a3a}</style><path d="M8.5 17.5h75v75h-75z" style="fill:#cf0000"/><path d="M26 70.5v-31h6.5L58.6 61V39.5H66v31h-6.5L33.4 49.3v21.2z" style="fill:#fff"/><path d="M98 67.5v-25h6.2v25zM112.7 67.5v-5.2h24c1.3 0 2.1-.8 2.1-2.3s-.8-2.3-2.1-2.3h-16.8c-2.5 0-4.5-.8-6-2.2-1.7-1.6-2.2-3.6-2.2-5.3 0-1.8.5-3.8 2.2-5.4 1.5-1.4 3.5-2.2 6-2.2h24v5.2h-24c-1.2 0-2.1.9-2.1 2.3 0 1.5.8 2.4 2.1 2.4h16.8c2.5 0 4.6.7 6.1 2.2 1.7 1.6 2.2 3.6 2.2 5.3 0 1.8-.5 3.8-2.2 5.4-1.5 1.4-3.6 2.2-6.1 2.2h-24zM152.5 67.5v-25h6.3l12.7 18.7 12.7-18.7h6.3v25h-6.2V52.8l-10 14.7h-5.7l-9.9-14.6v14.6zM197.9 54.9c0-2.1.4-4.3 1.6-6.4 2.1-3.6 6.1-6 11.8-6h9.9c5.7 0 9.7 2.5 11.8 6.1 1.2 2.1 1.6 4.3 1.6 6.5 0 2.1-.4 4.4-1.6 6.4-2.1 3.6-6.1 6-11.8 6h-9.9c-5.7 0-9.7-2.5-11.8-6-1.2-2.2-1.6-4.4-1.6-6.6m13.5 7.4h9.8c2.2 0 3.9-.6 5.2-1.9 1.5-1.5 2.1-3.4 2.1-5.4s-.6-3.9-2.1-5.4c-1.4-1.3-3-1.9-5.2-1.9h-9.8c-2.2 0-3.8.6-5.2 1.9-1.5 1.4-2.1 3.3-2.1 5.3v.2c0 2 .6 3.9 2.1 5.3 1.4 1.3 3 1.9 5.2 1.9M254.7 67.5V47.7h-12.5v-5.2h31.6v5.2h-12.6v19.8zM281.3 54.9c0-2.1.4-4.3 1.6-6.4 2.1-3.6 6.1-6 11.8-6h9.9c5.7 0 9.7 2.5 11.8 6.1 1.2 2.1 1.6 4.3 1.6 6.5 0 2.1-.4 4.4-1.6 6.4-2.1 3.6-6.1 6-11.8 6h-9.9c-5.7 0-9.7-2.5-11.8-6-1.2-2.2-1.6-4.4-1.6-6.6m13.5 7.4h9.8c2.2 0 3.9-.6 5.2-1.9 1.5-1.5 2.1-3.4 2.1-5.4s-.6-3.9-2.1-5.4c-1.4-1.3-3-1.9-5.2-1.9h-9.8c-2.2 0-3.8.6-5.2 1.9-1.5 1.4-2.1 3.3-2.1 5.3v.2c0 2 .6 3.9 2.1 5.3 1.3 1.3 3 1.9 5.2 1.9" class="st2"/></svg>
