<svg xmlns="http://www.w3.org/2000/svg" xml:space="preserve" id="Слой_1" x="0" y="0" version="1.1" viewBox="0 0 250 165"><style>.st0{fill:#cf0000}</style><path d="M71.8 5.9C84.1 2 97.4-.2 110.2 2.7c26.6 4 50.4 22.3 61.2 46.9 2.8 6.6 11.1 5.3 16.9 6.3l.3 2.7h-22.2c-5.7-17-18-31.7-33.8-40.3-15.6-8.6-34.4-11.1-51.7-7-24.1 5.4-44.6 24-52.3 47.4-7.4 0-14.9.2-22.3-.1.1-.6.4-1.8.5-2.4 4.1-.8 8.4-.6 12.4-1.9 3.2-1.1 4.4-4.5 5.8-7.2 9.2-19.4 26.6-34.5 46.8-41.2M.8 72.5h4.4c5.3 4.4 10.7 8.8 16.1 13.1V72.5h5v19.7H22C16.5 88 11.2 83.7 5.8 79.4v12.9h-5c-.1-6.6 0-13.2 0-19.8M31.3 92.3V72.5h5v19.7c-1.7 0-3.4 0-5 .1M43.1 74.1c1.9-1.6 4.5-1.6 6.9-1.6h16.1V77c-6.3.1-12.7-.2-19 .1l-.8.9c.2.5.6 1.5.7 2 5.2.7 10.5-.2 15.6.4 4.6.9 5.6 7.8 2.1 10.4-1.6 1.3-3.7 1.4-5.7 1.4H42v-4.5c6.3-.1 12.6.1 18.9-.1 1.3-.7.7-2 .3-3-5.1 0-10.3.4-15.3-.3-4.8-.5-6.3-7.2-2.8-10.2M71.8 72.5h5.1c3.2 4.7 6.3 9.5 9.5 14.2 3.2-4.7 6.3-9.5 9.5-14.2h4.9v19.8h-5V81.6c-2.5 3.5-4.8 7.2-7.2 10.7h-4.5c-2.4-3.6-4.8-7.2-7.3-10.8v10.9h-5zM111.3 73.4c5-1.5 10.5-1.2 15.6-.5 7.3 1.5 9.5 12.2 3.9 16.8-3.5 3.1-8.5 2.3-12.8 2.4-3.1.1-6.5-.2-9-2.3-5.2-4.1-4.1-13.9 2.3-16.4m2.1 4.3c-3.8 2.1-3.3 8.7 1 9.9 3.6.4 7.3.4 10.9 0 4.8-1.3 4.6-9.4-.3-10.3-3.8-.3-7.9-.8-11.6.4M138.8 72.5h24.4c0 1.5 0 3 .1 4.5h-9.5v15.2h-5.4c-.1-5.1 0-10.2-.1-15.3h-9.5zM174.3 73.2c5.3-1.1 11.1-1.2 16.4.2 7.6 2.9 7.5 15.3-.2 18-5.1 1.3-10.7 1.1-15.9.2-8.5-2.1-8.7-15.9-.3-18.4m2 4.2c-4.6 1.6-4 9.5.9 10.2 3.5.2 7 .4 10.4-.1 4.6-1.3 4.8-8.6.4-10.1-3.8-.6-7.9-.7-11.7 0M6.6 106.2c7.3.1 14.6 0 21.9 0 4.6 13.3 13.1 25.4 24.3 34 12.5 9.7 28.3 15.2 44.1 15.3 14.3.1 28.6-4 40.5-11.9 13.5-8.7 23.8-22.1 28.9-37.3 7.2 0 14.4-.1 21.6.1l.6.4c0 .5-.1 1.6-.1 2.1-5.8 1.3-14.4-.4-17.2 6.5-9.8 22.1-29.9 39.2-53.2 45.2-10.2 2.5-20.9 4.1-31.3 2-26.1-3.4-50-20.3-61.5-43.9-1.5-2.9-2.7-6.6-6.1-7.9-4.1-1.3-8.5-1.2-12.8-2 .3-.7.3-2 .3-2.6" class="st0"/></svg>