<svg xmlns="http://www.w3.org/2000/svg" xml:space="preserve" id="nismoto" x="0" y="0" version="1.1" viewBox="0 0 750 165"><style>.st0{fill:#cf0000}</style><path d="M134.9 12.3c12.6-2.4 25.4-3 38.1-3.6 23.6-.9 47.3-1 70.8 1.2 7.1.8 14.3 1.2 21.1 3.4 9.6 3.1 18.4 8.3 26.6 14.2 12.7 9.1 22.9 21.1 32.3 33.5-8.8-3.1-18.3-3.2-27.5-3.1 4-2.6 8.6-3.6 13.2-4.5-6.2-10.7-15.2-19.7-25.5-26.4-8.5-5.4-17.7-10.8-28-11.3-7.3-.3-15.2 1.5-20.5 6.9-5.2 5.9-7.9 13.4-12.1 19.9-1.2 1.9-2.9 3.6-5.2 4-6.6 1.7-13.4 1.2-20.1.8-18.4-1.4-36.7-3.5-55.1-4.5-19.8-.8-39.7-.5-59.6-.4 8.3-8.6 18.6-15 29-20.9 7.2-3.8 14.4-7.7 22.5-9.2" class="st0"/><path d="M244.1 24c3.2-3.7 7.9-6.2 12.9-5.7 11.9.7 22.6 6.8 31.9 13.8 7.4 5.6 13.7 12.6 18.6 20.5-12.1-1-24.3-2.4-36.5-1.6-14.4.5-28.7 2-42.9 4.4-4.1.7-8 1.7-12.1 2.1 4-3.1 8.6-5.5 13.4-7.1 2.9-9.6 8-18.7 14.7-26.4M471.5 57.3c6-2.5 12.7-2.6 19.1-2 4.2.5 8.4 1.4 12.4 2.6v9c-7.5-3.2-15.8-4.9-23.9-3.5-1.7.2-3 1.5-4.2 2.6 3.1 3 7.6 3.4 11.6 4.4 5.8 1.3 12.1 2.4 16.7 6.4 4.4 3.8 3.8 11.3-.6 14.9-3.3 2.7-7.6 3.6-11.7 4.1-8.6.9-17.4-.2-25.6-3v-9.3c8 4.2 17.4 5.6 26.2 4 2.2-.2 5.7-2.6 3.1-4.8-6.8-3.5-14.9-3-21.8-6.2-3.9-1.5-7.9-4.8-7.8-9.3-.3-4.5 2.6-8.4 6.5-9.9M610.5 55.2c8-.6 16.8.1 23.6 4.8 10.4 7.3 9.9 25.4-1.2 31.8-8.3 4.8-18.5 5.1-27.7 3.1-6.7-1.3-13.2-5.6-15.5-12.3-2.2-6.8-1.4-15.1 3.7-20.3 4.3-4.7 10.9-6.5 17.1-7.1m.5 8c-2.6.4-5.1 1.2-7.2 2.6-6.7 4.6-6.2 16.6 1.2 20.1 6 2.8 13.3 2.8 19.3.3 8.4-3.4 8.7-17.3.6-21.2-4.2-2.2-9.2-2.3-13.9-1.8M718.4 55.2c8-.6 16.8.1 23.6 4.8 10.5 7.2 10 25.5-1.2 31.8-8.3 4.8-18.6 5.1-27.8 3.1-6.7-1.4-13.2-5.6-15.5-12.3-2.2-6.7-1.4-15 3.7-20.2 4.5-4.8 11-6.6 17.2-7.2m.6 8c-2.5.4-5.1 1.1-7.2 2.6-6.8 4.5-6.3 16.6 1.2 20.2 6 2.8 13.2 2.8 19.3.3 8.2-3.3 8.8-16.7 1.2-20.9-4.3-2.5-9.6-2.7-14.5-2.2M381.1 56h11.5c8.6 9 17.5 17.9 26.1 26.9V56h10.5v39h-11.4c-8.8-8.9-17.5-17.8-26.3-26.7V95H381c.1-13 .1-26 .1-39M443.1 56h10.5v39h-10.5zM517.1 56h14.2c5.3 9.7 10.3 19.5 15.6 29.2 5.8-9.4 10.5-19.5 15.9-29.2H577v39h-10.5V67.8c-4.8 9.1-9.6 18.1-14.4 27.2H542l-14.4-27.3c-.1 9.1 0 18.2-.1 27.3H517c.1-13 .1-26 .1-39M646.9 56h43.6v8h-16.6v31h-10.5V64h-16.5zM9.9 73.1c-.8-5 .1-11.3 5.2-13.6 2.8 1.5 3.8 4.5 3.3 7.5-1.2-1.4-2.4-2.9-3.5-4.3-3 4.2-2.5 10.2 1 13.9-.3 2.6-.7 5.3-1.3 7.8-3-3-4-7.3-4.7-11.3M137.5 67.9c6.6-3.5 14.1-4.4 21.5-4.7 7.3-.3 14.7-1.6 22-.8 3.1-.2 4.9 3.4 3.4 6-2.7 5.2-6.9 9.9-12.4 12.3-5.1 2.2-10.6 2.8-16.1 3.5-12.8 1.3-25.7 1.5-38.6 1.1 2.1-3.2 4.5-6.1 7-8.8 4.5 4 11 3.8 16.7 3.4 6.9-.8 14.1-2.1 19.8-6.2 1.6-1 2.4-3.8.2-4.6-7.3-3.8-15.8-1.5-23.5-1.2M22.5 81.1c-.4-5.4-.8-11.7 2.5-16.2 9.6-.8 19.3-.2 29 0 18.8-.1 37.6 2.1 56.4 3.5-5.2 7.4-8.9 16.1-16.5 21.4-7.3 5.7-16.9 7.3-25.9 6.9-13.2-.4-27 .6-39.6-4.2-4.8-1.6-5.3-7.2-5.9-11.4M43 77.5c2.7 2.4 3.6 7.5 8.1 6.8 3.7.3 5.3-3.4 7.8-5.4-.1-.4-.2-1.2-.3-1.6-2.2-1.7-3.8-4.8-6.8-4.9-3.8-.5-5.9 3.4-8.8 5.1" class="st0"/><path d="M46.5 76.1c1.5-1 3-2 4.6-2.9 1.7.9 3.3 1.9 4.7 3.1-3.1 0-6.2-.1-9.3-.2M202.1 81.1c3.7-4.3 9.7-8 15.5-5.9 6.3 2.7 9.3 9.5 11.6 15.6 4.2 11.2 4.4 23.2 5.2 34.9 4.6-6.2 9.9-12.1 16.3-16.5-.7 4.8-1.9 10 .5 14.6 1.4 2.9 4.9 3.4 7.8 3.8 14.5 1.4 28.6-3.3 43.1-2.3 9.9-11.1 6.5-28.1 15.5-39.7 2-2.7 5.7-5 9.1-3.6 3.7 2.1 5.3 6.4 6.4 10.2 4.3 15.5 3.8 32.5-2.6 47.4-1.1 2.6-3 5.2-6 5.6-9.1 1.6-18.4 1.3-27.5 1.9-23.6.2-47.1 3-70.4 6.1-5.1.3-8.4 4.8-13.1 6.3-6.9 2.2-14.3 2.2-21.4 2.4-15.7.1-31.3 0-47 0-40.1-.4-80.1-3.4-119.8-8.7-4.3-.7-9.3-.6-12.3-4.2 4.3-1.6 8.8-2.4 13.3-3.1-5.1-2.5-9.4-6.1-12.7-10.7-2.3-3.7-8.3-2.6-10.1-6.9C1.3 123.4.9 118 0 112.7V99.1c2.9 7.1 3.4 16 10.1 20.8 3.9 2.6 7.3-1.5 9.8-4.1 2.7-3.2 7.2-3.2 11.1-3.4 8-.2 16 .3 24 .3 14.5.8 29.5 2.1 42.7 8.5 8.3 4.1 16.4 8.7 25.1 12.1 11.1-3.2 22.7-4.2 34.3-3.8 2.6.1 7.1-.8 6.5-4.4-1.7-7-8.4-11.1-11.1-17.6 10.9 1 20.6 7 31.5 7.8 2.2.2 5-.5 5.3-3.1 2.9-10.8 5.2-22.4 12.8-31.1m8.4 4.6c-6.5 2.7-9.5 9.9-11.6 16.2-3.4 12.7-2.9 26.8 2.8 38.7 2.2 4.5 5.9 9.2 11.3 9.7 4.7 0 8.4-3.8 10.7-7.6 5.5-9.5 6.7-20.9 5.6-31.6-.9-7.4-2.8-15-7.5-21-2.5-3.4-7-6-11.3-4.4m110.9 5.6c-4.5 3.6-5.7 9.8-6.6 15.2-1 9-.7 18.8 3.8 26.9 1.4 2.6 5 5.4 7.7 2.8 4.4-4 5.5-10.3 6.3-15.8.7-8.8.5-18.2-3.9-26.1-1.3-2.4-4.7-5.2-7.3-3M257.7 139c14.4 1.8 29 1.5 43.5 2.9-1.5-2.4-2.7-4.9-3.7-7.6-13.4 1.4-26.8 1.8-39.8 4.7m-196.4 5.5c19.3-.8 38.5-1.4 57.8-2.6-4.3-.8-8.7-.7-13.1-1-12.9-.4-25.7-1-38.6-1.6-2 1.8-4 3.5-6.1 5.2M45.5 79.5q5.1-.3 10.2 0c-1.3 1.8-3.1 3.8-5.6 3.3-2 0-3.1-2.1-4.6-3.3" class="st0"/></svg>
