<svg xmlns="http://www.w3.org/2000/svg" xml:space="preserve" id="nismoto" x="0" y="0" version="1.1" viewBox="0 0 750 165"><style>.st0{fill:#cf0000}</style><path d="M134.9 8.3c12.6-2.4 25.3-3 38.1-3.6 27-1 54.1-1 81 2.3 9.9 1.1 19.3 5.1 27.8 10.1 16.9 9.8 30.4 24.3 41.9 39.8-8.8-3.1-18.1-3.2-27.3-3.1 3.7-2.9 8.5-3.5 13-4.5-6-10.6-15.1-19.6-25.4-26.3-8.5-5.4-17.7-10.8-28-11.3-7.3-.3-15.2 1.5-20.5 6.9-5.2 5.9-7.9 13.4-12.1 19.9-3.3 5.6-10.8 4.9-16.4 5.3-22-.9-43.9-4.1-65.9-4.9-19.2-.7-38.4-.4-57.6-.3 8.3-8.6 18.6-15 29-20.9 7.1-4 14.4-7.9 22.4-9.4" class="st0"/><path d="M243.6 20.6c3.2-4 8.1-6.8 13.4-6.3 11.6.7 22.2 6.6 31.3 13.4 7.6 5.7 14.2 12.8 19.2 20.9-12.8-1.1-25.6-2.5-38.5-1.5-17.8.6-35.5 3.3-53.1 6.5 4-3.1 8.6-5.5 13.4-7.1 2.9-9.5 7.9-18.4 14.3-25.9M9.9 69c-.8-5 .2-11.2 5.2-13.5C17.9 57 19 60 18.3 63c-1.1-1.3-1.8-3.1-3.5-3.9-3.3 3.8-2.3 9.9 1.1 13.5-.3 2.6-.7 5.3-1.3 7.8-3-3-4-7.4-4.7-11.4M137.5 63.9c8.4-4.6 18.3-4.4 27.5-5.1 5.6-.2 11.4-1.3 17-.1 2.6.4 3.5 3.7 2.4 5.8-2.4 4.6-5.9 8.8-10.5 11.3-5.5 3.1-11.8 3.7-17.9 4.5-12.8 1.3-25.8 1.5-38.6 1.1 2.1-3.2 4.5-6.1 7-8.8 4.5 4 11 3.8 16.6 3.4 6.7-.8 13.6-2 19.3-5.8 1.7-1 3.2-3.9.8-5-7.3-3.9-15.8-1.6-23.6-1.3M22.5 77.1c-.5-5.4-.8-11.6 2.5-16.2 9.6-.8 19.3-.2 28.9 0 18.9-.1 37.6 2.1 56.4 3.5-5.2 7.4-8.9 16.1-16.5 21.4-7.3 5.7-16.8 7.3-25.9 6.9-13.2-.4-27 .6-39.7-4.1-4.6-1.6-5.1-7.3-5.7-11.5M43 73.6c2.7 2.3 3.6 7.4 8 6.8 3.9.4 5.3-3.7 8.1-5.4-1.4-2.7-3.6-5.5-6.5-6.4-4.1-1.1-6.6 3-9.6 5M474.2 62.3c9.5-2.5 19.5-1.1 28.8 1.6v9c-7.5-3.2-15.8-4.9-23.9-3.5-1.6.3-3.1 1-3.8 2.5 1.3 2.3 4.2 2.7 6.5 3.4 7.1 1.8 14.9 2.4 20.9 7 4.9 3.6 4.5 11.7-.1 15.4-3.3 2.7-7.6 3.5-11.7 4.1-8.6.9-17.4-.2-25.6-3v-9.3c7.3 3.9 15.8 5.2 24 4.4 2.3-.3 5-.8 6.3-2.8.4-2.2-1.9-3.2-3.5-3.7-7.7-2.4-16.3-2.4-23.1-7.1-3.7-2.5-4.9-7.5-3.1-11.5 1.3-3.6 4.9-5.6 8.3-6.5M610.3 61.2c8.1-.7 16.9.1 23.8 4.8 10.4 7.3 9.9 25.4-1.3 31.8-8.3 4.8-18.6 5.1-27.8 3.1-6.7-1.4-13.2-5.6-15.5-12.3-2.2-6.7-1.4-15 3.7-20.2 4.4-4.7 10.9-6.5 17.1-7.2m.9 8c-4.2.6-8.6 2.4-10.7 6.3-2.8 5.5-1.4 13.6 4.5 16.5 6 2.8 13.2 2.8 19.3.3 8.2-3.3 8.8-16.6 1.2-20.9-4.3-2.5-9.5-2.7-14.3-2.2M718.5 61.2c8-.6 16.8.1 23.6 4.8 10.4 7.2 9.9 25.4-1.2 31.8-8.3 4.8-18.6 5.1-27.8 3.1-6.7-1.4-13.2-5.6-15.4-12.3s-1.4-15 3.7-20.2c4.3-4.8 10.8-6.6 17.1-7.2m.8 8c-2.6.4-5.2 1.1-7.4 2.6-6.8 4.5-6.3 16.5 1.1 20.2 6 2.8 13.2 2.9 19.3.3 8.5-3.4 8.8-17.3.6-21.3-4.1-2.1-9-2.3-13.6-1.8M381.1 62h11.5c8.6 9 17.4 17.9 26.1 26.9V62h10.5v39h-11.4c-8.8-8.9-17.5-17.8-26.3-26.8v26.7H381c.1-12.9.1-25.9.1-38.9M443.1 62h10.5v39h-10.5zM517.1 62h14.2c5.3 9.7 10.3 19.5 15.6 29.2 5.8-9.4 10.5-19.5 15.9-29.2H577v39h-10.5V73.8c-4.8 9.1-9.6 18.1-14.4 27.2H542c-4.8-9.1-9.5-18.2-14.4-27.2-.1 9.1 0 18.2-.1 27.3H517c.1-13.1.1-26.1.1-39.1M646.9 62h43.6v8h-16.6v31h-10.5V70h-16.5z" class="st0"/><path d="M46.4 72.1c1.5-1 3.1-2 4.6-2.9 1.7.8 3.3 1.8 4.6 3.2-3-.1-6.1-.2-9.2-.3M202.1 77.1c3.7-4.3 9.7-8.1 15.6-5.8 6 2.6 9 9 11.2 14.7 4.4 11.4 4.7 23.7 5.5 35.7 4.6-6.2 9.9-12.1 16.3-16.5-.7 4.8-1.9 10 .5 14.5 1.4 2.9 4.9 3.5 7.8 3.8 14.5 1.4 28.7-3.3 43.1-2.3 9.9-11.1 6.5-28.1 15.5-39.7 2.1-2.8 5.8-5.1 9.3-3.5 3.9 2.3 5.3 6.9 6.5 11 4 15.3 3.4 31.9-2.8 46.6-1.1 2.6-3 5.2-6 5.6-9.1 1.6-18.4 1.3-27.5 1.9-23.6.2-47.1 3-70.4 6.1-5.1.3-8.4 4.8-13.1 6.3-7.2 2.3-15 2.3-22.5 2.5h-32c-44.8.3-89.5-2.8-133.8-8.7-4.3-.8-9.3-.7-12.3-4.3 4.3-1.6 8.8-2.4 13.3-3.1-3.6-2-7.3-4.1-10-7.4-2-2-3.3-5-6.2-5.8-2.2-1-5.1-1.3-6.3-3.7-2.4-4.8-2.8-10.5-3.8-15.8V95.1c3 7.2 3.4 16.7 10.7 21.2 3.9 1.9 6.7-2.1 9.2-4.4 2.7-3.2 7.3-3.2 11.1-3.4 8-.2 16 .3 24 .3 14.5.8 29.5 2.1 42.7 8.5 8.3 4.1 16.4 8.7 25.1 12.1 11.1-3.2 22.7-4.2 34.3-3.8 2.7.2 7.1-.8 6.5-4.4-1.7-7-8.4-11.1-11.1-17.5 10.9 1 20.6 7 31.6 7.8 2.3.2 5-.6 5.3-3.2 2.9-10.9 5.1-22.6 12.7-31.2m8.4 4.6c-6.9 2.9-10 10.7-11.9 17.4-3 12.4-2.4 25.9 3.1 37.5 2.2 4.5 5.9 9.2 11.3 9.7 4.7 0 8.4-3.8 10.7-7.6 5.5-9.5 6.7-20.9 5.6-31.6-.9-7.4-2.8-14.9-7.4-20.9-2.6-3.4-7-6.1-11.4-4.5m110.9 5.6c-3.3 2.4-4.7 6.6-5.7 10.4-2 8.5-1.9 17.6.4 26 1.2 3.7 2.9 8 6.8 9.5 2.7.4 4.8-2.2 6-4.3 3.7-7 4.2-15.2 3.8-23-.4-5.8-1.5-12-4.9-16.9-1.3-1.8-4.3-3.5-6.4-1.7M257.8 135c14.4 1.8 29 1.5 43.4 3-1.5-2.4-2.7-4.9-3.8-7.6-13.2 1.3-26.6 1.7-39.6 4.6m-196.5 5.5c11.6-.4 23.1-.9 34.7-1.4 7.6-.6 15.3-.3 22.9-1.3-17.1-1.6-34.4-1.5-51.5-2.5-2 1.8-4 3.5-6.1 5.2M45.5 75.5q5.1-.3 10.2 0c-1.3 1.8-3.1 3.8-5.6 3.4-2-.1-3.1-2.2-4.6-3.4" class="st0"/></svg>
