<svg xmlns="http://www.w3.org/2000/svg" xml:space="preserve" id="Слой_1" x="0" y="0" version="1.1" viewBox="0 0 380 110"><style>.st0{fill:#cf0000}</style><path d="M0 0h110v110H0zm25.5 31v48h13.1V46q16.2 16.5 32.7 33h14.2V31h-13v33.1c-11-10.9-21.9-22-32.7-33.1zM145.1 40.1c8.4-3.7 18-2.1 26.6.4 0 2.6 0 5.1.1 7.7-7.2-2.6-16-5.3-23.1-1.2.8 1 1.5 2.2 2.8 2.4 6.6 2.1 14.1 2.2 19.9 6.4 3.1 2.2 4.1 6.6 2.3 9.9-1.5 3.4-5.2 4.9-8.6 5.6-8.1 1.7-16.7.7-24.4-2.1v-7.8c6.6 3.2 14.2 4.5 21.5 3.3 1.7-.2 3-1.4 4.1-2.6-2.6-3.3-7-3.2-10.7-4.2-4.5-1-9.6-1.8-13.1-5.2-4-3.7-2.1-10.7 2.6-12.6M260.2 38.3c6.8-.8 14.1-.1 20 3.6 8.8 5.7 8.9 20.7 0 26.3-5.4 3.4-12 4.2-18.3 3.8-6-.5-12.6-2.4-16.2-7.5-3.8-5.5-3.8-13.4 0-18.9 3.3-4.7 9-6.6 14.5-7.3m-.8 7.3c-5.6.9-9.2 7.1-7.4 12.5 1.3 5.1 7.2 7 11.9 7 4.7.2 10.3-.8 12.9-5.2 1.8-4 1.5-9.6-2.4-12.3-4.2-3.1-10-3.1-15-2M350.1 38.3c6.8-.8 14.1-.1 20 3.6 8.8 5.7 8.8 20.6 0 26.3-5.4 3.4-12 4.2-18.3 3.8-6.1-.5-12.6-2.4-16.3-7.6-3.7-5.5-3.7-13.4.1-18.8 3.4-4.7 9.1-6.6 14.5-7.3m-.6 7.3c-5.7.9-9.2 7.1-7.4 12.5 1.5 5.4 7.9 7.1 12.9 7 4.6.1 10.2-1.3 12.2-6 1.3-3.9 1-9.1-2.7-11.6-4.4-3-10.1-3-15-1.9M123 39h8.7v32H123zM184 39h11.8c4.4 8 8.7 16.1 13 24.2 4.4-8 8.7-16.1 13-24.2h11.7v32h-8.6V48.5l-12 22.5c-2.8 0-5.7 0-8.5-.1-3.8-7.5-7.9-14.9-11.8-22.3v22.5h-8.7c.1-10.8.1-21.4.1-32.1M291.7 39h36v7h-13.6v25h-8.7V46h-13.7z" class="st0"/><path d="M25.5 31h14.2c10.9 11.1 21.7 22.2 32.7 33.2V31.1h13v48H71.2C60.3 68 49.4 57 38.6 46v33H25.5z" style="fill:#fff"/></svg>