<svg xmlns="http://www.w3.org/2000/svg" xml:space="preserve" id="nismoto" x="0" y="0" style="enable-background:new 0 0 175 55" version="1.1" viewBox="0 0 175 55"><style>.st0{fill:#c3002f}</style><path d="M5 11h35v35H5V11m8.9 11v13h3.6v-8.9c3 2.9 6.1 5.8 9 8.8 1.3 0 2.7 0 4 .1V22h-3.6v9c-3-3.1-6.1-6-9.1-9h-3.9zM44.3 22.3h3.5v13.5h-3.5V22.3zM54 23c3.5-1.7 7.6-.9 11.3-.1v3c-3.1-1.1-6.4-1.5-9.7-.7 2.5 2.9 7.1 1.7 9.9 4.2 2 1.6 1 5-1.3 5.7-3.8 1.5-8.1.8-12-.2v-3.2c3.5 1.3 7.8 2.5 11.2.2-3-1.9-6.9-1.6-9.9-3.5-2-1.3-1.5-4.3.5-5.4zM70.8 22.3h5l5.4 10.2 5.4-10.2c1.6 0 3.3 0 4.9-.1v13.5H88c0-3.1 0-6.3-.1-9.4-1.7 3.1-3.4 6.3-5.1 9.4h-3.5c-1.7-3.1-3.4-6.3-5.1-9.4v9.4c-1.2 0-2.3 0-3.5-.1.1-4.4.1-8.9.1-13.3zM100.4 22.7c5.1-1.8 13.6-.5 13.6 6.3.2 7.5-9.8 8.8-14.9 6-5.1-2.5-4.2-11 1.3-12.3m1 3c-2.9 1.4-2.6 6.4.7 7.1 3.1 1.2 8.4.3 8.2-3.9-.2-4.2-5.8-4.6-8.9-3.2zM116.2 22.3h15.3v3h-5.7v10.5h-3.7V25.3h-5.7c-.1-1-.1-2-.2-3zM138.4 22.6c5-1.8 13.5-.5 13.6 6.2.3 7.6-9.8 9-15 6.1-5-2.4-4-11 1.4-12.3m1 3.1c-2.9 1.4-2.5 6.5.7 7.2 3.1 1.1 8.3.3 8.2-3.9-.2-4.3-5.8-4.8-8.9-3.3z" class="st0"/><path d="M13.9 22h3.9c3 3.1 6.2 5.9 9.1 9v-9h3.6v13c-1.3 0-2.7 0-4-.1-2.9-3-6-5.9-9-8.8V35h-3.6V22z" style="fill:#fff"/></svg>